<?xml version="1.0" encoding="UTF-8"?>
<svg id="_圖層_2" data-name="圖層_2" xmlns="http://www.w3.org/2000/svg" xmlns:xlink="http://www.w3.org/1999/xlink" version="1.1" viewBox="0 0 1024 1024">
  <!-- Generator: Adobe Illustrator 29.6.1, SVG Export Plug-In . SVG Version: 2.1.1 Build 9)  -->
  <defs>
    <style>
      .st0 {
        fill: #2c3b5f;
      }

      .st1 {
        fill: url(#_未命名漸層_15);
      }

      .st2 {
        fill: url(#_未命名漸層_12);
      }

      .st3 {
        fill: url(#_未命名漸層_24);
      }

      .st4 {
        fill: url(#_未命名漸層_10);
      }

      .st5 {
        fill: url(#_未命名漸層_6);
      }
    </style>
    <linearGradient id="_未命名漸層_12" data-name="未命名漸層 12" x1="675.62" y1="585.69" x2="525.49" y2="300.27" gradientUnits="userSpaceOnUse">
      <stop offset="0" stop-color="#4993a0"/>
      <stop offset=".87" stop-color="#28598f"/>
    </linearGradient>
    <linearGradient id="_未命名漸層_6" data-name="未命名漸層 6" x1="517.19" y1="449.47" x2="382.3" y2="569.3" gradientUnits="userSpaceOnUse">
      <stop offset="0" stop-color="#4993a0"/>
      <stop offset="1" stop-color="#28598f"/>
    </linearGradient>
    <linearGradient id="_未命名漸層_10" data-name="未命名漸層 10" x1="449.3" y1="452.73" x2="534.6" y2="221.6" gradientUnits="userSpaceOnUse">
      <stop offset="0" stop-color="#2c3b5f"/>
      <stop offset="1" stop-color="#28598f"/>
    </linearGradient>
    <linearGradient id="_未命名漸層_15" data-name="未命名漸層 15" x1="627.31" y1="479.14" x2="638.83" y2="368.95" gradientUnits="userSpaceOnUse">
      <stop offset="0" stop-color="#4993a0"/>
      <stop offset="1" stop-color="#28598f" stop-opacity="0"/>
    </linearGradient>
    <linearGradient id="_未命名漸層_24" data-name="未命名漸層 24" x1="514.6" y1="218.43" x2="431.54" y2="398.17" gradientUnits="userSpaceOnUse">
      <stop offset=".06" stop-color="#4993a0"/>
      <stop offset="1" stop-color="#28598f" stop-opacity="0"/>
    </linearGradient>
  </defs>
  <path class="st2" d="M511.03,352.13c3.71-9.55,8.87-19.38,16.55-26.42,10.42-9.55,29.22-11.51,42.44-5.22.9.43,4.3,1.68,4.84,2.67.01.01.01.02.01.02l133.73,245.84h-79.35l-117.49-216.87"/>
  <path class="st5" d="M563.56,485.39c-.58-.01-1.16-.01-1.74-.01-71.65,0-133.94,26.22-165.64,83.61h-80.78l6.3-11.58c26.47-39.96,63.97-71.99,108.15-91.76,8.32-3.71,16.87-7,25.63-9.82,24.55-7.91,50.72-12.18,77.9-12.18,2.55,0,5.1.04,7.63.12l22.55,41.62Z"/>
  <path class="st4" d="M574.92,323.27c-.39-.71-.39-.39-4.42-2.25-12.13-5.6-31.86-4.13-42.27,5.42-7.69,7.04-12.2,16.69-17.08,25.7,0,0-45.12,83.28-45.12,83.28-40.9,9.49-78,28.87-108.65,55.48l154.36-283.75s63.17,116.12,63.18,116.13Z"/>
  <path class="st1" d="M708.6,569.03s-54.23,3.94-108.9-122.26c-53.34-123.15-47.97-110.31-47.97-110.31l23.14-13.26,133.73,245.84Z"/>
  <path class="st0" d="M302.37,625.71c5.67,0,8.94,1.63,12.53,8.28l36.07,65.49c.76,1.53.44,2.51-1.31,2.51h-13.84c-1.42,0-2.07-.33-2.51-1.31l-7.19-13.29h-52.19l-7.08,13.29c-.54.98-1.09,1.31-2.51,1.31h-14.27c-1.74,0-2.07-.98-1.31-2.51l35.74-65.49c3.49-6.65,6.86-8.28,11.44-8.28h6.43ZM318.38,673.22l-16.89-31.27c-.33-.54-.76-.76-1.31-.76h-.65c-.54,0-.87.22-1.2.76l-16.78,31.27h36.83Z"/>
  <path class="st0" d="M536.54,625.71c22.12,0,30.51,7.85,30.51,28.77v18.74c0,20.92-8.39,28.77-30.51,28.77h-33.56c-22.12,0-30.51-7.95-30.51-28.77v-18.74c0-20.81,8.39-28.77,30.51-28.77h33.56ZM489.03,672.02c0,11.44,3.16,14.6,14.49,14.6h32.36c11.33,0,14.49-3.16,14.49-14.6v-16.34c0-11.44-3.16-14.6-14.49-14.6h-32.36c-11.33,0-14.49,3.16-14.49,14.6v16.34Z"/>
  <path class="st0" d="M594.73,625.71c1.42,0,1.96.33,2.51,1.42l31.71,58.62c.33.54.76.76,1.31.76h.54c.54,0,.98-.22,1.31-.76l31.49-58.62c.54-1.09,1.09-1.42,2.51-1.42h14.06c1.74,0,2.07,1.09,1.31,2.51l-35.63,65.49c-3.6,6.65-6.97,8.28-11.55,8.28h-6.43c-5.67,0-9.04-1.63-12.53-8.28l-36.07-65.49c-.76-1.42-.44-2.51,1.31-2.51h14.17Z"/>
  <path class="st0" d="M726.58,625.71c5.67,0,8.93,1.63,12.53,8.28l36.07,65.49c.76,1.53.44,2.51-1.31,2.51h-13.84c-1.42,0-2.07-.33-2.51-1.31l-7.19-13.29h-52.19l-7.08,13.29c-.54.98-1.09,1.31-2.51,1.31h-14.27c-1.74,0-2.07-.98-1.31-2.51l35.74-65.49c3.49-6.65,6.86-8.28,11.44-8.28h6.43ZM742.59,673.22l-16.89-31.27c-.33-.54-.76-.76-1.31-.76h-.65c-.54,0-.87.22-1.2.76l-16.78,31.27h36.83Z"/>
  <path class="st0" d="M456.01,699.15l-18.2-22.56c10.79-2.18,15.8-9.59,15.8-22.23v-6.32c0-15.04-7.19-22.34-23.43-22.34h-58.4c-1.81,0-3.27,1.46-3.27,3.27v70.61c0,1.32,1.07,2.4,2.4,2.4h11.77c1.32,0,2.4-1.07,2.4-2.4v-21.14h34.54l17.33,22.12c.76.98,1.31,1.42,3.05,1.42h14.6c1.74,0,2.29-1.74,1.42-2.83ZM436.94,654.91c0,6.54-2.72,9.15-10.13,9.15h-41.73v-23.1h41.73c7.3,0,10.13,2.72,10.13,9.37v4.58Z"/>
  <path class="st3" d="M411.33,391.71l100.4-184.57s23.48,56.33-53.57,167.76l-18.69,27.88-28.15-11.08Z"/>
</svg>